<svg xmlns="http://www.w3.org/2000/svg" width="2461.6796875" height="1374"><style xmlns="http://www.w3.org/1999/xhtml" type="text/css">
svg text {
  fill: #000;
  stroke: none;
  font-size: 12pt;
  font-family: 'Andale Mono', monospace;
}

svg :not(text) {
  fill: none;
  stroke: #000;
  stroke-width: 2;
}

.textbg {
  fill: #fff;
  stroke: none;
}

.rect {
  fill: #fff;
}

.signal-solid {
  stroke-dasharray: 0;
}

.signal-dotted {
  stroke-dasharray: 5;
}

.arrow-filled {
  marker-end: url(#arrow-filled);
}

.arrow-open {
  marker-end: url(#arrow-open);
}
</style><defs><marker id="arrow-filled" refX="5" refY="2.5" markerWidth="5" markerHeight="5" orient="auto"><path d="M0,0 5,2.5 0,5z" style="stroke: none; fill: #000"/></marker><marker id="arrow-open" refX="5" refY="2.5" markerWidth="5" markerHeight="5" orient="auto"><path d="M0,0 5,2.5 0,5" style="stroke-width: 1"/></marker></defs><rect width="259.640625" height="28" x="10" y="10" class="rect"/><text x="139.8203125" y="24" style="text-anchor: middle; alignment-baseline: central;">Registar Ficha de Produção</text><rect width="192.828125" height="38" x="10" y="48" class="rect"/><text x="106.4140625" y="67" style="text-anchor: middle; alignment-baseline: central;">Gestor de Produção</text><rect width="192.828125" height="38" x="10" y="1316" class="rect"/><text x="106.4140625" y="1335" style="text-anchor: middle; alignment-baseline: central;">Gestor de Produção</text><path d="M106.4140625,86 v1230" class="timeline"/><rect width="164.015625" height="38" x="602.484375" y="48" class="rect"/><text x="684.4921875" y="67" style="text-anchor: middle; alignment-baseline: central;">FichaProducaoUI</text><rect width="164.015625" height="38" x="602.484375" y="1316" class="rect"/><text x="684.4921875" y="1335" style="text-anchor: middle; alignment-baseline: central;">FichaProducaoUI</text><path d="M684.4921875,86 v1230" class="timeline"/><rect width="241.234375" height="38" x="1084.34375" y="48" class="rect"/><text x="1204.9609375" y="67" style="text-anchor: middle; alignment-baseline: central;">FichaProducaoController</text><rect width="241.234375" height="38" x="1084.34375" y="1316" class="rect"/><text x="1204.9609375" y="1335" style="text-anchor: middle; alignment-baseline: central;">FichaProducaoController</text><path d="M1204.9609375,86 v1230" class="timeline"/><rect width="183.625" height="38" x="1373.1796875" y="48" class="rect"/><text x="1464.9921875" y="67" style="text-anchor: middle; alignment-baseline: central;">ProdutoRepository</text><rect width="183.625" height="38" x="1373.1796875" y="1316" class="rect"/><text x="1464.9921875" y="1335" style="text-anchor: middle; alignment-baseline: central;">ProdutoRepository</text><path d="M1464.9921875,86 v1230" class="timeline"/><rect width="212.421875" height="38" x="1576.8046875" y="48" class="rect"/><text x="1683.015625" y="67" style="text-anchor: middle; alignment-baseline: central;">FichaProducaoBuilder</text><rect width="212.421875" height="38" x="1576.8046875" y="1316" class="rect"/><text x="1683.015625" y="1335" style="text-anchor: middle; alignment-baseline: central;">FichaProducaoBuilder</text><path d="M1683.015625,86 v1230" class="timeline"/><rect width="194.21875" height="38" x="1809.2265625" y="48" class="rect"/><text x="1906.3359375" y="67" style="text-anchor: middle; alignment-baseline: central;">MaterialRepository</text><rect width="194.21875" height="38" x="1809.2265625" y="1316" class="rect"/><text x="1906.3359375" y="1335" style="text-anchor: middle; alignment-baseline: central;">MaterialRepository</text><path d="M1906.3359375,86 v1230" class="timeline"/><rect width="136.21875" height="38" x="2023.4453125" y="48" class="rect"/><text x="2091.5546875" y="67" style="text-anchor: middle; alignment-baseline: central;">MateriaPrima</text><rect width="136.21875" height="38" x="2023.4453125" y="1316" class="rect"/><text x="2091.5546875" y="1335" style="text-anchor: middle; alignment-baseline: central;">MateriaPrima</text><path d="M2091.5546875,86 v1230" class="timeline"/><rect width="144.8125" height="38" x="2179.6640625" y="48" class="rect"/><text x="2252.0703125" y="67" style="text-anchor: middle; alignment-baseline: central;">FichaProducao</text><rect width="144.8125" height="38" x="2179.6640625" y="1316" class="rect"/><text x="2252.0703125" y="1335" style="text-anchor: middle; alignment-baseline: central;">FichaProducao</text><path d="M2252.0703125,86 v1230" class="timeline"/><rect width="87.203125" height="38" x="2344.4765625" y="48" class="rect"/><text x="2388.078125" y="67" style="text-anchor: middle; alignment-baseline: central;">Produto</text><rect width="87.203125" height="38" x="2344.4765625" y="1316" class="rect"/><text x="2388.078125" y="1335" style="text-anchor: middle; alignment-baseline: central;">Produto</text><path d="M2388.078125,86 v1230" class="timeline"/><rect width="58" height="18" x="366.640625" y="102" class="textbg"/><text x="395.453125" y="111" style="text-anchor: middle; alignment-baseline: central;">onLoad</text><path d="M106.4140625,124 h578.078125" class="signal-solid arrow-filled"/><rect width="134.421875" height="18" x="877.515625" y="140" class="textbg"/><text x="944.7265625" y="149" style="text-anchor: middle; alignment-baseline: central;">listarProdutos</text><path d="M684.4921875,162 h520.46875" class="signal-solid arrow-filled"/><rect width="134.421875" height="18" x="1267.765625" y="178" class="textbg"/><text x="1334.9765625" y="187" style="text-anchor: middle; alignment-baseline: central;">listarProdutos</text><path d="M1204.9609375,200 h260.03125" class="signal-solid arrow-filled"/><rect width="38.796875" height="18" x="709.6875" y="220" class="textbg"/><text x="728.890625" y="229" style="text-anchor: middle; alignment-baseline: central;">show</text><path d="M684.4921875,215 h20 v33 h-20" class="signal-solid arrow-filled"/><rect width="336.046875" height="18" x="227.421875" y="254" class="textbg"/><text x="395.453125" y="263" style="text-anchor: middle; alignment-baseline: central;">insere dados (produto, qtdStandard)</text><path d="M106.4140625,276 h578.078125" class="signal-solid arrow-filled"/><rect width="316.84375" height="18" x="786.296875" y="292" class="textbg"/><text x="944.7265625" y="301" style="text-anchor: middle; alignment-baseline: central;">adicionarQtdStandard(qtdStandard)</text><path d="M684.4921875,314 h520.46875" class="signal-solid arrow-filled"/><rect width="288.046875" height="18" x="800.703125" y="330" class="textbg"/><text x="944.7265625" y="339" style="text-anchor: middle; alignment-baseline: central;">verificaFichaProducao(produto)</text><path d="M684.4921875,352 h520.46875" class="signal-solid arrow-filled"/><rect width="240.03125" height="18" x="1214.953125" y="368" class="textbg"/><text x="1334.9765625" y="377" style="text-anchor: middle; alignment-baseline: central;">temFichaProducao(produto)</text><path d="M1204.9609375,390 h260.03125" class="signal-solid arrow-filled"/><rect width="538.078125" height="28" x="126.4140625" y="410" class="rect"/><text x="395.453125" y="424" style="text-anchor: middle; alignment-baseline: central;">Se existe Ficha de Produção para o produto selecionado,</text><rect width="365.65625" height="28" x="298.8359375" y="458" class="rect"/><text x="481.6640625" y="472" style="text-anchor: middle; alignment-baseline: central;">pergunta ao GP se pretende substituir</text><rect width="57.609375" height="18" x="1415.171875" y="502" class="textbg"/><text x="1443.98828125" y="511" style="text-anchor: middle; alignment-baseline: central;">create</text><path d="M1204.9609375,524 h478.0546875" class="signal-solid arrow-filled"/><rect width="268.84375" height="18" x="1309.5625" y="540" class="textbg"/><text x="1443.98828125" y="549" style="text-anchor: middle; alignment-baseline: central;">withQtdStandard(qtdStandard)</text><path d="M1204.9609375,562 h478.0546875" class="signal-solid arrow-filled"/><rect width="480.46875" height="28" x="704.4921875" y="582" class="rect"/><text x="944.7265625" y="596" style="text-anchor: middle; alignment-baseline: central;">Carregar lista de materiais para eventual seleção</text><rect width="144.015625" height="18" x="872.703125" y="626" class="textbg"/><text x="944.7265625" y="635" style="text-anchor: middle; alignment-baseline: central;">listarMateriais</text><path d="M684.4921875,648 h520.46875" class="signal-solid arrow-filled"/><rect width="144.015625" height="18" x="1483.625" y="664" class="textbg"/><text x="1555.6484375" y="673" style="text-anchor: middle; alignment-baseline: central;">listarMateriais</text><path d="M1204.9609375,686 h701.375" class="signal-solid arrow-filled"/><rect width="269.234375" height="28" x="704.4921875" y="706" class="rect"/><text x="839.109375" y="720" style="text-anchor: middle; alignment-baseline: central;">while adicionarMateriaPrima</text><rect width="220.828125" height="18" x="285.03125" y="750" class="textbg"/><text x="395.453125" y="759" style="text-anchor: middle; alignment-baseline: central;">adicionar Materia-Prima</text><path d="M106.4140625,772 h578.078125" class="signal-solid arrow-filled"/><rect width="345.65625" height="18" x="709.484375" y="792" class="textbg"/><text x="882.3203125" y="801" style="text-anchor: middle; alignment-baseline: central;">show ("selecionar material/produto")</text><path d="M684.4921875,787 h20 v33 h-20" class="signal-solid arrow-filled"/><rect width="316.84375" height="18" x="237.015625" y="826" class="textbg"/><text x="395.453125" y="835" style="text-anchor: middle; alignment-baseline: central;">insere dados (matéria-prima, qtd)</text><path d="M106.4140625,848 h578.078125" class="signal-solid arrow-filled"/><rect width="364.859375" height="18" x="762.296875" y="864" class="textbg"/><text x="944.7265625" y="873" style="text-anchor: middle; alignment-baseline: central;">insereMateriaPrima(matéria-prima, qtd)</text><path d="M684.4921875,886 h520.46875" class="signal-solid arrow-filled"/><rect width="192.03125" height="18" x="1552.234375" y="902" class="textbg"/><text x="1648.2578125" y="911" style="text-anchor: middle; alignment-baseline: central;">create(prod/mat, qt)</text><path d="M1204.9609375,924 h886.59375" class="signal-solid arrow-filled"/><rect width="249.640625" height="18" x="1319.15625" y="940" class="textbg"/><text x="1443.98828125" y="949" style="text-anchor: middle; alignment-baseline: central;">withMateriaPrima(prod/mat)</text><path d="M1204.9609375,962 h478.0546875" class="signal-solid arrow-filled"/><rect width="96.40625" height="28" x="704.4921875" y="982" class="rect"/><text x="752.6953125" y="996" style="text-anchor: middle; alignment-baseline: central;">end while</text><rect width="77.203125" height="18" x="357.046875" y="1026" class="textbg"/><text x="395.453125" y="1035" style="text-anchor: middle; alignment-baseline: central;">submeter</text><path d="M106.4140625,1048 h578.078125" class="signal-solid arrow-filled"/><rect width="201.625" height="18" x="843.90625" y="1064" class="textbg"/><text x="944.7265625" y="1073" style="text-anchor: middle; alignment-baseline: central;">registarFichaProducao</text><path d="M684.4921875,1086 h520.46875" class="signal-solid arrow-filled"/><rect width="172.828125" height="18" x="1357.5625" y="1102" class="textbg"/><text x="1443.98828125" y="1111" style="text-anchor: middle; alignment-baseline: central;">buildFichaProducao</text><path d="M1204.9609375,1124 h478.0546875" class="signal-solid arrow-filled"/><rect width="57.609375" height="18" x="1938.734375" y="1140" class="textbg"/><text x="1967.54296875" y="1149" style="text-anchor: middle; alignment-baseline: central;">create</text><path d="M1683.015625,1162 h569.0546875" class="signal-solid arrow-filled"/><rect width="345.65625" height="18" x="1623.6875" y="1178" class="textbg"/><text x="1796.51953125" y="1187" style="text-anchor: middle; alignment-baseline: central;">associarFichaProducao(FichaProducao)</text><path d="M1204.9609375,1200 h1183.1171875" class="signal-solid arrow-filled"/><rect width="38.40625" height="18" x="1315.765625" y="1216" class="textbg"/><text x="1334.9765625" y="1225" style="text-anchor: middle; alignment-baseline: central;">save</text><path d="M1204.9609375,1238 h260.03125" class="signal-solid arrow-filled"/><rect width="0" height="0" x="0" y="0" class="textbg"/><text x="944.7265625" y="1263" style="text-anchor: middle; alignment-baseline: central;"/><path d="M1204.9609375,1258 h-520.46875" class="signal-dotted arrow-filled"/><rect width="154.625" height="18" x="708.984375" y="1278" class="textbg"/><text x="786.8046875" y="1287" style="text-anchor: middle; alignment-baseline: central;">mensagem sucesso</text><path d="M684.4921875,1273 h20 v33 h-20" class="signal-solid arrow-filled"/></svg>