{
  "accessors": [
    {
      "bufferView": 2,
      "componentType": 5126,
      "count": 4,
      "max": [
        6.5436348915100098,
        4.416600227355957,
        -0.11055199801921844
      ],
      "min": [
        -2.1621339321136475,
        -4.416600227355957,
        -0.11055199801921844
      ],
      "type": "VEC3"
    },
    {
      "bufferView": 2,
      "byteOffset": 48,
      "componentType": 5126,
      "count": 4,
      "max": [
        0,
        -0,
        1
      ],
      "min": [
        0,
        -0,
        1
      ],
      "type": "VEC3"
    },
    {
      "bufferView": 1,
      "componentType": 5126,
      "count": 4,
      "max": [
        1,
        1
      ],
      "min": [
        0,
        0
      ],
      "type": "VEC2"
    },
    {
      "bufferView": 0,
      "componentType": 5125,
      "count": 6,
      "max": [
        3
      ],
      "min": [
        0
      ],
      "type": "SCALAR"
    },
    {
      "bufferView": 2,
      "byteOffset": 96,
      "componentType": 5126,
      "count": 24,
      "max": [
        3.3261909484863281,
        0.36600801348686218,
        0.39439600706100464
      ],
      "min": [
        1.6539050340652466,
        -0.15905599296092987,
        0.29637899994850159
      ],
      "type": "VEC3"
    },
    {
      "bufferView": 2,
      "byteOffset": 384,
      "componentType": 5126,
      "count": 24,
      "max": [
        0.99903476238250732,
        0.9974246621131897,
        0.9983680248260498
      ],
      "min": [
        -0.99903476238250732,
        -0.9974246621131897,
        -0.9983680248260498
      ],
      "type": "VEC3"
    },
    {
      "bufferView": 1,
      "byteOffset": 32,
      "componentType": 5126,
      "count": 24,
      "max": [
        0.875,
        1
      ],
      "min": [
        0.125,
        0
      ],
      "type": "VEC2"
    },
    {
      "bufferView": 0,
      "byteOffset": 24,
      "componentType": 5125,
      "count": 36,
      "max": [
        23
      ],
      "min": [
        0
      ],
      "type": "SCALAR"
    },
    {
      "bufferView": 2,
      "byteOffset": 672,
      "componentType": 5126,
      "count": 128,
      "max": [
        3.3858349323272705,
        0.39847901463508606,
        0.56818699836730957
      ],
      "min": [
        1.5840150117874146,
        -0.14611400663852692,
        -0.1278340071439743
      ],
      "type": "VEC3"
    },
    {
      "bufferView": 2,
      "byteOffset": 2208,
      "componentType": 5126,
      "count": 128,
      "max": [
        0.9990352988243103,
        0.9989134669303894,
        0.99876540899276733
      ],
      "min": [
        -0.99903547763824463,
        -0.99898457527160645,
        -0.99876534938812256
      ],
      "type": "VEC3"
    },
    {
      "bufferView": 1,
      "byteOffset": 224,
      "componentType": 5126,
      "count": 128,
      "max": [
        0.54166698455810547,
        1
      ],
      "min": [
        0.34375,
        0
      ],
      "type": "VEC2"
    },
    {
      "bufferView": 0,
      "byteOffset": 168,
      "componentType": 5125,
      "count": 312,
      "max": [
        127
      ],
      "min": [
        0
      ],
      "type": "SCALAR"
    },
    {
      "bufferView": 2,
      "byteOffset": 3744,
      "componentType": 5126,
      "count": 1679,
      "max": [
        5.3816461563110352,
        0.86588698625564575,
        2.7818229198455811
      ],
      "min": [
        0.13643500208854675,
        -0.86877399682998657,
        -0.14960299432277679
      ],
      "type": "VEC3"
    },
    {
      "bufferView": 2,
      "byteOffset": 23892,
      "componentType": 5126,
      "count": 1679,
      "max": [
        1,
        1,
        1
      ],
      "min": [
        -1,
        -1,
        -1
      ],
      "type": "VEC3"
    },
    {
      "bufferView": 1,
      "byteOffset": 1248,
      "componentType": 5126,
      "count": 1679,
      "max": [
        0.65625,
        1
      ],
      "min": [
        0.34375,
        0
      ],
      "type": "VEC2"
    },
    {
      "bufferView": 0,
      "byteOffset": 1416,
      "componentType": 5125,
      "count": 4437,
      "max": [
        1678
      ],
      "min": [
        0
      ],
      "type": "SCALAR"
    },
    {
      "bufferView": 2,
      "byteOffset": 44040,
      "componentType": 5126,
      "count": 179,
      "max": [
        4.6552767753601074,
        0.79430198669433594,
        2.7680668830871582
      ],
      "min": [
        0.18304400146007538,
        -0.79646998643875122,
        0.17141300439834595
      ],
      "type": "VEC3"
    },
    {
      "bufferView": 2,
      "byteOffset": 46188,
      "componentType": 5126,
      "count": 179,
      "max": [
        1,
        1,
        1
      ],
      "min": [
        -1,
        -1,
        -1
      ],
      "type": "VEC3"
    },
    {
      "bufferView": 1,
      "byteOffset": 14680,
      "componentType": 5126,
      "count": 179,
      "max": [
        0.875,
        1
      ],
      "min": [
        0.125,
        0
      ],
      "type": "VEC2"
    },
    {
      "bufferView": 0,
      "byteOffset": 19164,
      "componentType": 5125,
      "count": 297,
      "max": [
        178
      ],
      "min": [
        0
      ],
      "type": "SCALAR"
    }
  ],
  "asset": {
    "extras": {
      "author": "Koalas (https://sketchfab.com/Koalas)",
      "license": "CC-BY-4.0 (http://creativecommons.org/licenses/by/4.0/)",
      "source": "https://sketchfab.com/3d-models/bus-stop-7b22ab6eee5c4a52b72a03de0328228e",
      "title": "Bus Stop"
    },
    "generator": "Sketchfab-7.96.0",
    "version": "2.0"
  },
  "bufferViews": [
    {
      "buffer": 0,
      "byteLength": 20352,
      "byteOffset": 0,
      "name": "floatBufferViews",
      "target": 34963
    },
    {
      "buffer": 0,
      "byteLength": 16112,
      "byteOffset": 20352,
      "byteStride": 8,
      "name": "floatBufferViews",
      "target": 34962
    },
    {
      "buffer": 0,
      "byteLength": 48336,
      "byteOffset": 36464,
      "byteStride": 12,
      "name": "floatBufferViews",
      "target": 34962
    }
  ],
  "buffers": [
    {
      "byteLength": 84800,
      "uri": "scene.bin"
    }
  ],
  "materials": [
    {
      "doubleSided": true,
      "name": "lambert2SG",
      "pbrMetallicRoughness": {
        "baseColorFactor": [
          0.27119792872178344,
          0.25694704657466699,
          0.10971043463809865,
          1
        ],
        "metallicFactor": 0,
        "roughnessFactor": 0.59999999999999998
      }
    },
    {
      "doubleSided": true,
      "name": "phong1SG",
      "pbrMetallicRoughness": {
        "baseColorFactor": [
          0.046498239387609455,
          0.055417560391426354,
          0.046188190647852928,
          1
        ],
        "metallicFactor": 0.60537347560975607,
        "roughnessFactor": 0.21779725609756095
      }
    },
    {
      "doubleSided": true,
      "name": "phong2SG",
      "pbrMetallicRoughness": {
        "baseColorFactor": [
          0.057297834334599111,
          0.052386026011283685,
          0.052386026011283685,
          1
        ],
        "metallicFactor": 0,
        "roughnessFactor": 0.94073932926829273
      }
    },
    {
      "alphaMode": "BLEND",
      "doubleSided": true,
      "name": "phong3SG",
      "pbrMetallicRoughness": {
        "baseColorFactor": [
          0.52597470952018421,
          0.51562474590536378,
          0.51562474590536378,
          0.78830030487804881
        ],
        "metallicFactor": 0,
        "roughnessFactor": 0.095846036585365835
      }
    }
  ],
  "meshes": [
    {
      "primitives": [
        {
          "attributes": {
            "NORMAL": 1,
            "POSITION": 0,
            "TEXCOORD_0": 2
          },
          "indices": 3,
          "material": 0,
          "mode": 4
        }
      ]
    },
    {
      "primitives": [
        {
          "attributes": {
            "NORMAL": 5,
            "POSITION": 4,
            "TEXCOORD_0": 6
          },
          "indices": 7,
          "material": 2,
          "mode": 4
        }
      ]
    },
    {
      "primitives": [
        {
          "attributes": {
            "NORMAL": 9,
            "POSITION": 8,
            "TEXCOORD_0": 10
          },
          "indices": 11,
          "material": 1,
          "mode": 4
        }
      ]
    },
    {
      "primitives": [
        {
          "attributes": {
            "NORMAL": 13,
            "POSITION": 12,
            "TEXCOORD_0": 14
          },
          "indices": 15,
          "material": 1,
          "mode": 4
        }
      ]
    },
    {
      "primitives": [
        {
          "attributes": {
            "NORMAL": 17,
            "POSITION": 16,
            "TEXCOORD_0": 18
          },
          "indices": 19,
          "material": 3,
          "mode": 4
        }
      ]
    }
  ],
  "nodes": [
    {
      "children": [
        1
      ],
      "name": "RootNode (gltf orientation matrix)",
      "rotation": [
        -0.70710678118654746,
        -0,
        -0,
        0.70710678118654757
      ]
    },
    {
      "children": [
        2
      ],
      "name": "RootNode (model correction matrix)"
    },
    {
      "children": [
        3,
        4,
        5,
        6,
        7
      ],
      "name": "c17c28dadbb14b8ebfdcced94b6f1198.obj.cleaner.materialmerger.gles"
    },
    {
      "mesh": 0,
      "name": ""
    },
    {
      "mesh": 1,
      "name": ""
    },
    {
      "mesh": 2,
      "name": ""
    },
    {
      "mesh": 3,
      "name": ""
    },
    {
      "mesh": 4,
      "name": ""
    }
  ],
  "scene": 0,
  "scenes": [
    {
      "name": "OSG_Scene",
      "nodes": [
        0
      ]
    }
  ]
}

